<?xml version="1.0"?>
<svg xmlns="http://www.w3.org/2000/svg" xmlns:xlink="http://www.w3.org/1999/xlink" version="1.1" id="Capa_1" x="0px" y="0px" viewBox="0 0 512 512" style="enable-background:new 0 0 512 512;" xml:space="preserve" width="512px" height="512px" class=""><g><path style="fill:#144362" d="M242.299,504.389c0,4.205,3.408,7.611,7.611,7.611c4.204,0,7.611-3.407,7.611-7.611v-60.892  l-15.223,45.669V504.389z" data-original="#FF8646" class="" data-old_color="#1A567C"/><path style="fill:#144362" d="M487.897,443.497v60.892c0,4.205,3.408,7.611,7.612,7.611c4.204,0,7.611-3.407,7.611-7.611v-15.223  L487.897,443.497z" data-original="#FF6337" class="" data-old_color="#FF6337"/><g>
	<path style="fill:#FFE2A8" d="M105.292,296.848H59.623c-32.177,0-58.355-26.177-58.355-58.355s26.177-58.355,58.355-58.355h45.669   v15.223H59.623c-23.783,0-43.132,19.348-43.132,43.132s19.348,43.132,43.132,43.132h45.669V296.848z" data-original="#85453D" class="active-path" data-old_color="#FFF0D3"/>
	<path style="fill:#FFE2A8" d="M82.458,289.237v199.515l25.24,8.413c3.988,1.329,6.143,5.64,4.815,9.628   c-1.329,3.988-5.642,6.144-9.628,4.815L72.44,501.459c-3.108-1.036-5.204-3.945-5.204-7.221V289.237H82.458z" data-original="#85453D" class="active-path" data-old_color="#FFF0D3"/>
</g><path style="fill:#EDEDED" d="M143.35,289.237v199.515l25.24,8.413c3.988,1.329,6.143,5.64,4.815,9.628  c-1.329,3.988-5.642,6.144-9.628,4.815l-30.444-10.149c-3.108-1.036-5.204-3.945-5.204-7.221V289.237H143.35z" data-original="#60312C" class="" data-old_color="#EDEBEB"/><polygon style="fill:#26699B" points="242.299,65.966 222.002,96.412 249.911,126.858 272.745,126.858 272.745,65.966 " data-original="#FFD9D4" class="" data-old_color="#0091FF"/><polygon style="fill:#68AEE6" points="211.853,65.966 211.853,126.858 234.688,126.858 242.299,65.966 " data-original="#FFF0D3" class="" data-old_color="#67ADE6"/><path style="fill:#56C0E8" d="M262.904,45.36c-2.973-2.972-7.792-2.972-10.764,0l-9.841,9.841l-9.841-9.841  c-2.973-2.972-7.792-2.972-10.764,0c-2.973,2.974-2.973,7.792,0,10.765l12.993,12.993v57.74h15.223V69.119l12.993-12.993  C265.877,53.153,265.877,48.334,262.904,45.36z" data-original="#FF6753" class="" data-old_color="#FF6753"/><path style="fill:#EDEDED" d="M242.299,149.693c-4.204,0-7.611,3.407-7.611,7.611c0,12.59-10.243,22.835-22.834,22.835H105.292  v15.223h106.561c20.985,0,38.057-17.072,38.057-38.057C249.911,153.1,246.503,149.693,242.299,149.693z" data-original="#60312C" class="" data-old_color="#EDEBEB"/><path style="fill:#53C7F0" d="M150.961,215.04v-27.29c0-11.21-9.087-20.297-20.297-20.297h-30.446l35.52,182.676h60.892v-76.115  C196.63,245.64,177.224,221.8,150.961,215.04z" data-original="#FF4128" class="" data-old_color="#53c7f0"/><path style="fill:#56C0E8" d="M120.515,215.04v-27.29c0-11.21-9.087-20.297-20.297-20.297H79.921  c-11.21,0-20.297,9.087-20.297,20.297v71.041C50.156,269.523,44.4,283.608,44.4,299.046v51.083h91.338v-76.115  C135.738,245.64,129.27,221.8,120.515,215.04z" data-original="#FF6753" class="" data-old_color="#FF6753"/><path style="fill:#EDEDED" d="M105.292,45.669v91.338c25.222,0,45.669-20.447,45.669-45.669S130.515,45.669,105.292,45.669z" data-original="#60312C" class="" data-old_color="#EDEBEB"/><path style="fill:#FFE2A8" d="M120.515,91.338c0-25.222-6.816-45.669-15.223-45.669c-25.222,0-45.669,20.447-45.669,45.669  s20.447,45.669,45.669,45.669C113.7,137.007,120.515,116.56,120.515,91.338z" data-original="#85453D" class="active-path" data-old_color="#FFF0D3"/><circle style="fill:#1C9DCE" cx="105.292" cy="22.834" r="22.834" data-original="#40211D" class="" data-old_color="#40211D"/><g>
	<rect x="357.487" y="263.358" style="fill:#4A88B7" width="30.446" height="60.892" data-original="#FFE2A8" class="" data-old_color="#68AEE6"/>
	<path style="fill:#4A88B7" d="M327.041,248.135c0,16.815,13.631,30.446,30.446,30.446h30.446   c16.815,0,30.446-13.631,30.446-30.446l-45.669-30.446L327.041,248.135z" data-original="#FFE2A8" class="" data-old_color="#68AEE6"/>
</g><polygon style="fill:#DAA5C1" points="381.336,159.582 381.336,248.135 442.228,248.135 442.228,190.028 " data-original="#A45E43" class="" data-old_color="#DAA4C1"/><polygon style="fill:#ED83BD" points="390.132,169.73 303.191,190.028 303.191,248.135 411.782,248.135 411.782,201.497 " data-original="#C27749" class="" data-old_color="#ED84BE"/><path style="fill:#EDEDED" d="M427.005,141.574h-30.446l15.223,59.923c2.319,0.627,4.756,0.969,7.274,0.969  c9.675,0,18.191-4.943,23.172-12.438v-33.231C442.228,148.424,435.378,141.574,427.005,141.574z" data-original="#60312C" class="" data-old_color="#EDEBEB"/><path style="fill:#FFE2A8" d="M326.364,202.466c9.675,0,18.191-4.942,23.172-12.438c4.981,7.496,13.499,12.438,23.172,12.438  c9.674,0,18.191-4.942,23.172-12.438c3.685,5.545,9.307,9.686,15.9,11.47v-44.701c0-8.373-6.85-15.223-15.223-15.223h-78.145  c-8.373,0-15.223,6.85-15.223,15.223v33.231C308.172,197.522,316.69,202.466,326.364,202.466z" data-original="#85453D" class="active-path" data-old_color="#FFF0D3"/><path style="fill:#68AEE6" d="M457.451,255.746H287.968c-4.204,0-7.611-3.407-7.611-7.611c0-4.205,3.408-7.611,7.611-7.611h169.483  c4.204,0,7.611,3.407,7.611,7.611C465.062,252.339,461.655,255.746,457.451,255.746z" data-original="#FFF0D3" class="" data-old_color="#67ADE6"/><polygon style="fill:#144362" points="471.596,309.027 432.079,389.709 503.12,339.473 503.12,309.027 " data-original="#FF8D7E" class="" data-old_color="#FF8D7E"/><g>
	<polygon style="fill:#1CA0F3" points="242.299,309.027 242.299,339.473 472.674,389.709 472.674,309.027  " data-original="#FFB4A9" class="" data-old_color="#1BA0F3"/>
	<path style="fill:#1CA0F3" d="M472.674,339.473l-30.446,70.282l30.446,70.282c1.659-1.691,3.133-3.565,4.364-5.605   c5.33,8.829,15.016,14.735,26.082,14.735V339.473H472.674z" data-original="#FFB4A9" class="" data-old_color="#1BA0F3"/>
</g><path style="fill:#26699B" d="M242.299,339.473v149.693c11.066,0,20.752-5.906,26.082-14.735  c5.33,8.829,15.016,14.735,26.082,14.735c11.066,0,20.752-5.904,26.082-14.735c5.33,8.83,15.016,14.735,26.082,14.735  c11.066,0,20.752-5.906,26.082-14.735c5.33,8.829,15.016,14.735,26.082,14.735c11.066,0,20.752-5.904,26.082-14.735  c5.33,8.83,15.016,14.735,26.082,14.735c8.51,0,16.194-3.5,21.718-9.13V339.473H242.299z" data-original="#FFD9D4" class="" data-old_color="#0091FF"/><polygon style="fill:#53C7F0" points="290.1,339.473 320.547,400.365 350.991,339.473 " data-original="#FF4128" class="" data-old_color="#53c7f0"/><polygon style="fill:#144362" points="394.428,339.473 424.875,400.365 455.32,339.473 " data-original="#FF8646" class="" data-old_color="#1A567C"/><path style="fill:#68AEE6" d="M503.12,347.084H242.299c-4.204,0-7.611-3.407-7.611-7.612s3.408-7.611,7.611-7.611H503.12  c4.204,0,7.612,3.407,7.612,7.611S507.324,347.084,503.12,347.084z" data-original="#FFF0D3" class="" data-old_color="#67ADE6"/></g> </svg>
