<?xml version="1.0"?>
<svg xmlns="http://www.w3.org/2000/svg" xmlns:xlink="http://www.w3.org/1999/xlink" version="1.1" id="Capa_1" x="0px" y="0px" viewBox="0 0 29.907 29.907" style="enable-background:new 0 0 29.907 29.907;" xml:space="preserve" width="512px" height="512px" class=""><g><g>
	<path d="M19.268,11.954c-0.318,0.335-0.765,0.527-1.226,0.527c-0.436,0-0.85-0.166-1.153-0.455   c-0.072-0.067-0.139-0.142-0.201-0.224c-0.494-0.661-0.44-1.575,0.129-2.174c0.161-0.169,0.323-0.326,0.484-0.48   c-1.152-0.65-2.31-0.747-2.93-0.128c-0.02,0.02-14.058,14.098-14.058,14.098c-0.702,0.91-0.193,2.692,1.22,4.106   c1.414,1.414,3.197,1.923,4.106,1.221c0,0,14.079-14.039,14.098-14.059c0.598-0.598,0.524-1.698-0.066-2.81   C19.537,11.703,19.403,11.813,19.268,11.954z" data-original="#000000" class="active-path" data-old_color="#53c7f0" fill="#53c7f0"/>
	<path d="M29.868,4.781c-0.077-0.183-0.254-0.303-0.452-0.307L26.377,4.42L25.51,1.506c-0.057-0.19-0.22-0.329-0.417-0.354   c-0.195-0.021-0.39,0.069-0.492,0.238l-1.566,2.605l-2.957-0.707c-0.191-0.044-0.394,0.026-0.514,0.184   c-0.12,0.158-0.135,0.372-0.039,0.545l1.47,2.655c0.336-0.145,0.652-0.264,0.944-0.359L20.95,4.525l2.21,0.528   c0.212,0.052,0.433-0.042,0.545-0.229l1.17-1.947l0.647,2.178c0.063,0.209,0.253,0.354,0.471,0.358l2.271,0.04l-1.563,1.65   c-0.149,0.158-0.18,0.396-0.074,0.586l1.1,1.987l-2.209-0.528c-0.212-0.05-0.433,0.043-0.545,0.229l-1.17,1.947l-0.557-1.872   c-0.266,0.077-0.581,0.189-0.941,0.346l0.861,2.898c0.057,0.19,0.22,0.329,0.417,0.354c0.021,0.002,0.042,0.004,0.063,0.004   c0.174,0,0.337-0.091,0.429-0.242l1.566-2.606l2.957,0.707c0.193,0.046,0.395-0.025,0.514-0.184c0.12-0.158,0.135-0.372,0.04-0.545   L27.68,7.526l2.09-2.208C29.906,5.174,29.945,4.963,29.868,4.781z" data-original="#000000" class="active-path" data-old_color="#53c7f0" fill="#53c7f0"/>
	<path d="M17.705,11.146c0.095,0.09,0.216,0.135,0.337,0.135c0.129,0,0.259-0.051,0.355-0.153c2.646-2.784,5.513-3.047,5.542-3.05   c0.269-0.022,0.471-0.257,0.449-0.526c-0.021-0.255-0.235-0.452-0.489-0.452c-0.012,0-0.023,0-0.036,0.001   c-0.131,0.01-3.257,0.28-6.177,3.352c-0.167,0.175-0.178,0.442-0.038,0.629C17.666,11.106,17.685,11.127,17.705,11.146z" data-original="#000000" class="active-path" data-old_color="#53c7f0" fill="#53c7f0"/>
</g></g> </svg>
