<?xml version="1.0"?>
<svg xmlns="http://www.w3.org/2000/svg" height="512px" viewBox="-23 1 511 511.99994" width="512px" class=""><g><path d="m276.726562 132.414062-7.695312 2.570313c-11.652344 3.898437-20.441406 13.578125-23.199219 25.554687l-27.179687 114c-1.691406 7.113282 2.703125 14.253907 9.816406 15.945313.832031.199219 1.683594.316406 2.542969.347656 6.113281.257813 11.605469-3.710937 13.285156-9.59375l32.429687-113.515625h17.65625v-35.308594zm0 0" fill="#fdc9a6" data-original="#FDC9A6" class=""/><path d="m230.984375 290.878906c4.277344.152344 8.367187-1.777344 10.964844-5.183594 1.441406-4.078124 1.171875-8.570312-.753907-12.445312l-11.359374-26.078125-2.746094-8.042969-8.4375 35.410156c-1.71875 7.105469 2.652344 14.261719 9.761718 15.980469.84375.203125 1.703126.324219 2.570313.359375zm0 0" fill="#f6bb92" data-original="#F6BB92"/><path d="m197.28125 256 4.898438 28.425781c2.171874 8.675781 10.964843 13.953125 19.640624 11.785157 8.683594-2.15625 13.976563-10.941407 11.820313-19.625-.285156-1.152344-.699219-2.265626-1.226563-3.328126l-11.40625-26.085937zm0 0" fill="#fdc9a6" data-original="#FDC9A6" class=""/><path d="m170.796875 132.414062 9.015625.371094c11.53125 4.9375 19.769531 15.386719 21.882812 27.753906l22.695313 94.453126-35.9375 9.835937-17.65625-97.105469h-8.828125v-35.308594" fill="#3b869e" data-original="#3B869E"/><path d="m382.660156 141.242188h-105.933594v-88.277344c0-29.25 23.714844-52.964844 52.96875-52.964844 29.25 0 52.964844 23.714844 52.964844 52.964844zm0 0" fill="#cdcdcd" data-original="#CDCDCD" class="" style="fill:#61BDDF" data-old_color="#60BDDF"/><path d="m409.855469 153.28125c-4.773438-11.246094-15.09375-19.167969-27.195313-20.867188h-8.828125v33.632813c.273438 1.597656 7.113281.238281 7.855469 1.675781l54.671875 106.1875c3.988281 7.757813 13.507813 10.8125 21.265625 6.824219.53125-.273437 1.046875-.578125 1.542969-.910156 6.691406-4.453125 8.96875-13.222657 5.296875-20.371094zm0 0" fill="#fdc9a6" data-original="#FDC9A6" class=""/><path d="m41.324219 254.339844-9.78125 22.667968c-3.597657 8.191407-13.152344 11.917969-21.347657 8.328126-8.195312-3.597657-11.921874-13.160157-8.324218-21.355469.472656-1.078125 1.0625-2.105469 1.757812-3.054688l11.398438-15.519531zm0 0" fill="#fdc9a6" data-original="#FDC9A6" class=""/><path d="m126.660156 158.898438c-4.875 0-8.828125-3.953126-8.828125-8.828126v-52.96875c0-4.875 3.953125-8.824218 8.828125-8.824218s8.828125 3.949218 8.828125 8.824218v52.96875c0 4.875-3.953125 8.828126-8.828125 8.828126zm0 0" fill="#f6bb92" data-original="#F6BB92"/><path d="m117.832031 8.828125h17.65625c19.5 0 35.308594 15.808594 35.308594 35.308594v35.3125h-88.277344v-35.3125c0-19.5 15.8125-35.308594 35.3125-35.308594zm0 0" fill="#744630" data-original="#744630"/><path d="m88.957031 132.597656h-9.011719c-12.289062 2.316406-22.546874 10.746094-27.199218 22.351563l-37.71875 90.457031 33.332031 14.621094 33.683594-92.769532 15.554687.464844v-26.480468zm0 0" fill="#3b869e" data-original="#3B869E"/><path d="m126.660156 105.929688c-14.625 0-26.484375-11.855469-26.484375-26.480469v-26.484375l26.484375-8.828125 26.480469 8.828125v26.484375c0 14.625-11.855469 26.480469-26.480469 26.480469zm0 0" fill="#fdc9a6" data-original="#FDC9A6" class=""/><path d="m82.519531 132.414062h88.277344v123.585938h-88.277344zm0 0" fill="#1f6c8c" data-original="#1F6C8C"/><path d="m170.796875 476.691406h-88.277344v-176.554687l17.65625-44.136719v-8.828125h52.964844v8.828125l17.65625 44.136719zm0 0" fill="#1f6c8c" data-original="#1F6C8C"/><path d="m135.488281 158.898438c0-4.878907-3.953125-8.828126-8.828125-8.828126s-8.828125 3.949219-8.828125 8.828126v97.101562h17.65625zm0 0" fill="#3b869e" data-original="#3B869E"/><path d="m126.660156 485.515625c-4.4375.382813-8.363281-2.859375-8.828125-7.289063v-153.140624c.929688-4.875 5.632813-8.074219 10.507813-7.144532 3.625.6875 6.457031 3.523438 7.148437 7.144532v153.140624c-.464843 4.429688-4.390625 7.671876-8.828125 7.289063zm0 0" fill="#3b869e" data-original="#3B869E"/><path d="m73.695312 476.691406h105.929688c9.75 0 17.65625 7.902344 17.65625 17.652344s-7.90625 17.65625-17.65625 17.65625h-105.929688c-9.75 0-17.65625-7.90625-17.65625-17.65625s7.902344-17.652344 17.65625-17.652344zm0 0" fill="#5b3726" data-original="#5B3726"/><path d="m328.175781 8.828125c14.625 0 26.484375 11.855469 26.484375 26.480469v17.65625l-26.484375-8.828125-26.484375 8.828125v-17.65625c0-14.625 11.859375-26.480469 26.484375-26.480469zm0 0" fill="#da922a" data-original="#DA922A"/><path d="m276.726562 132.414062v37.242188l7.964844 15.722656 9.691406 26.484375h70.621094l7.308594-26.484375 10.347656-18.203125v-34.761719zm0 0" fill="#d9d9d9" data-original="#D9D9D9" class="active-path" style="fill:#61BDDF" data-old_color="#D9D9D9"/><path d="m328.183594 150.070312c-4.875 0-8.828125-3.953124-8.828125-8.828124v-42.664063c0-4.875 3.953125-8.828125 8.828125-8.828125s8.828125 3.953125 8.828125 8.828125v42.664063c0 4.875-3.953125 8.828124-8.828125 8.828124zm0 0" fill="#f6bb92" data-original="#F6BB92"/><path d="m301.691406 132.414062 26.484375 44.136719 26.484375-44.136719zm0 0" fill="#f6bb92" data-original="#F6BB92"/><path d="m435.625 512h-211.863281v-41.296875c0-65.34375 18.132812-129.410156 52.382812-185.058594l18.238281-29.644531h70.621094l18.238282 29.644531c34.25 55.648438 52.386718 119.714844 52.382812 185.058594zm0 0" fill="#b9b9b9" data-original="#B9B9B9" class="" style="fill:#53C7F0" data-old_color="#53c7f0"/><path d="m294.382812 211.863281h70.621094v44.136719h-70.621094zm0 0" fill="#dc4d41" data-original="#DC4D41"/><path d="m329.695312 370.757812c23.730469 28.246094 54.046876 50.222657 88.273438 63.984376l16.289062 6.109374c-3.8125-44.925781-16.199218-88.707031-36.484374-128.972656l-23.941407 23.570313c-13.285156 13.449219-28.097656 25.300781-44.136719 35.308593zm0 0" fill="#cdcdcd" data-original="#CDCDCD" class="" style="fill:#61BDDF" data-old_color="#60BDDF"/><path d="m375.640625 336.71875 22.070313-24.839844c-4.492188-8.90625-9.234376-17.65625-14.488282-26.234375l-18.21875-29.644531h-70.621094l-18.238281 29.644531c-25.175781 40.945313-41.726562 86.605469-48.628906 134.175781l36.078125-11.101562c7.113281-2.191406 14.101562-4.699219 20.957031-7.523438 24.285157-10.34375 46.664063-24.6875 66.207031-42.433593zm0 0" fill="#d9d9d9" data-original="#D9D9D9" class="active-path" style="fill:#61BDDF" data-old_color="#D9D9D9"/><path d="m223.761719 61.792969c-2.339844 0-4.585938-.929688-6.238281-2.585938l-17.65625-17.65625c-3.386719-3.503906-3.289063-9.09375.214843-12.480469 3.421875-3.304687 8.847657-3.304687 12.265625 0l11.414063 11.414063 11.414062-11.414063c3.386719-3.507812 8.976563-3.605468 12.484375-.21875 3.507813 3.390626 3.601563 8.976563.214844 12.484376-.070312.074218-.140625.144531-.214844.214843l-17.65625 17.65625c-1.65625 1.65625-3.898437 2.585938-6.242187 2.585938zm0 0" fill="#c7463b" data-original="#C7463B" class="" style="fill:#C7463B"/><path d="m100.175781 132.414062 26.484375 44.136719 26.480469-44.136719zm0 0" fill="#cdcdcd" data-original="#CDCDCD" class="" style="fill:#61BDDF" data-old_color="#60BDDF"/><path d="m327.804688 105.929688c-14.621094-.179688-26.332032-12.175782-26.15625-26.800782l.316406-26.480468 26.589844-8.511719 26.367187 9.148437-.316406 26.480469c-.175781 14.625-12.171875 26.339844-26.796875 26.164063zm0 0" fill="#fdc9a6" data-original="#FDC9A6" class=""/></g> </svg>
